<?xml version="1.0" encoding="UTF-8" standalone="no"?>
<!-- Created with Inkscape (http://www.inkscape.org/) -->

<svg
   width="206.05742mm"
   height="99.122513mm"
   viewBox="0 0 206.05742 99.122513"
   version="1.1"
   id="svg1"
   inkscape:export-filename="bitmapa.svg"
   inkscape:export-xdpi="80.739632"
   inkscape:export-ydpi="80.739632"
   xmlns:inkscape="http://www.inkscape.org/namespaces/inkscape"
   xmlns:sodipodi="http://sodipodi.sourceforge.net/DTD/sodipodi-0.dtd"
   xmlns="http://www.w3.org/2000/svg"
   xmlns:svg="http://www.w3.org/2000/svg">
  <sodipodi:namedview
     id="namedview1"
     pagecolor="#ffffff"
     bordercolor="#000000"
     borderopacity="0.25"
     inkscape:showpageshadow="2"
     inkscape:pageopacity="0.0"
     inkscape:pagecheckerboard="0"
     inkscape:deskcolor="#d1d1d1"
     inkscape:document-units="mm"
     inkscape:zoom="0.97386896"
     inkscape:cx="158.13216"
     inkscape:cy="306.50941"
     inkscape:window-width="1920"
     inkscape:window-height="991"
     inkscape:window-x="-9"
     inkscape:window-y="-9"
     inkscape:window-maximized="1"
     inkscape:current-layer="layer1">
    <inkscape:page
       x="0"
       y="0"
       width="206.05742"
       height="99.122513"
       id="page2"
       margin="0"
       bleed="0" />
  </sodipodi:namedview>
  <defs
     id="defs1" />
  <g
     inkscape:label="Warstwa 1"
     inkscape:groupmode="layer"
     id="layer1"
     transform="translate(-3.0152673,-55.019293)">
    <path
       style="fill:#000000;stroke:#000000;stroke-width:0.264583;stroke-opacity:1"
       id="path1"
       sodipodi:type="arc"
       sodipodi:cx="112.45772"
       sodipodi:cy="-41.953815"
       sodipodi:rx="41.495472"
       sodipodi:ry="38.80595"
       sodipodi:start="0"
       sodipodi:end="3.1524646"
       sodipodi:open="true"
       sodipodi:arc-type="arc"
       d="M 153.95319,-41.953815 A 41.495472,38.80595 0 0 1 133.07509,-8.2767816 41.495472,38.80595 0 0 1 91.450065,-8.4883904 41.495472,38.80595 0 0 1 70.964698,-42.375703"
       transform="rotate(90)" />
    <path
       style="fill:#000000;stroke:#000000;stroke-width:0.264583;stroke-opacity:1"
       id="path2"
       sodipodi:type="arc"
       sodipodi:cx="-112.58189"
       sodipodi:cy="170.13414"
       sodipodi:rx="41.427612"
       sodipodi:ry="38.80595"
       sodipodi:start="0"
       sodipodi:end="3.1510553"
       sodipodi:open="true"
       sodipodi:arc-type="arc"
       d="m -71.154274,170.13414 a 41.427612,38.80595 0 0 1 -20.827074,33.66797 41.427612,38.80595 0 0 1 -41.540262,-0.1841 41.427612,38.80595 0 0 1 -20.48603,-33.85107"
       transform="rotate(-90)" />
    <rect
       style="fill:#000000;stroke:#000000;stroke-width:0.264583;stroke-opacity:1"
       id="rect2"
       width="129.09702"
       height="82.894897"
       x="41.68758"
       y="71.080208" />
    <circle
       style="fill:#ffffff;fill-opacity:1;stroke:#ffffff;stroke-width:0.264583;stroke-opacity:1"
       id="path3"
       cy="111.93327"
       cx="49.038727"
       r="25.266489" />
    <path
       style="fill:#ffffff;fill-opacity:1;stroke:#ffffff;stroke-width:0.264583;stroke-opacity:1"
       id="path7"
       sodipodi:type="arc"
       sodipodi:cx="179.44641"
       sodipodi:cy="95.632301"
       sodipodi:rx="6.5203838"
       sodipodi:ry="6.5203838"
       sodipodi:start="0"
       sodipodi:end="6.2652702"
       sodipodi:arc-type="slice"
       d="m 185.96679,95.632301 a 6.5203838,6.5203838 0 0 1 -6.49118,6.520319 6.5203838,6.5203838 0 0 1 -6.54932,-6.461913 6.5203838,6.5203838 0 0 1 6.43251,-6.578201 6.5203838,6.5203838 0 0 1 6.60695,6.402988 l -6.51934,0.116807 z" />
    <path
       style="fill:#ffffff;fill-opacity:1;stroke:#ffffff;stroke-width:0.264583;stroke-opacity:1"
       id="path8"
       sodipodi:type="arc"
       sodipodi:cx="161.24367"
       sodipodi:cy="95.632301"
       sodipodi:rx="6.5203838"
       sodipodi:ry="6.5203838"
       sodipodi:start="0"
       sodipodi:end="6.2652702"
       sodipodi:arc-type="slice"
       d="m 167.76405,95.632301 a 6.5203838,6.5203838 0 0 1 -6.49118,6.520319 6.5203838,6.5203838 0 0 1 -6.54932,-6.461913 6.5203838,6.5203838 0 0 1 6.43251,-6.578201 6.5203838,6.5203838 0 0 1 6.60695,6.402988 l -6.51934,0.116807 z" />
    <path
       style="fill:#ffffff;fill-opacity:1;stroke:#ffffff;stroke-width:0.264583;stroke-opacity:1"
       id="path9"
       sodipodi:type="arc"
       sodipodi:cx="170.75256"
       sodipodi:cy="113.29168"
       sodipodi:rx="6.5203838"
       sodipodi:ry="6.5203838"
       sodipodi:start="0"
       sodipodi:end="6.2652702"
       sodipodi:arc-type="slice"
       d="m 177.27295,113.29168 a 6.5203838,6.5203838 0 0 1 -6.49118,6.52032 6.5203838,6.5203838 0 0 1 -6.54933,-6.46191 6.5203838,6.5203838 0 0 1 6.43252,-6.57821 6.5203838,6.5203838 0 0 1 6.60694,6.40299 l -6.51934,0.11681 z" />
    <path
       style="fill:#ffffff;fill-opacity:1;stroke:#ffffff;stroke-width:0.264583;stroke-opacity:1"
       id="path10"
       sodipodi:type="arc"
       sodipodi:cx="151.73477"
       sodipodi:cy="113.29168"
       sodipodi:rx="6.5203838"
       sodipodi:ry="6.5203838"
       sodipodi:start="0"
       sodipodi:end="6.2652702"
       sodipodi:arc-type="slice"
       d="m 158.25516,113.29168 a 6.5203838,6.5203838 0 0 1 -6.49119,6.52032 6.5203838,6.5203838 0 0 1 -6.54932,-6.46191 6.5203838,6.5203838 0 0 1 6.43251,-6.57821 6.5203838,6.5203838 0 0 1 6.60695,6.40299 l -6.51934,0.11681 z" />
    <rect
       style="fill:#000000;fill-opacity:1;stroke:#ffffff;stroke-width:0.264584;stroke-opacity:1"
       id="rect10"
       width="9.7805758"
       height="33.145283"
       x="43.469231"
       y="96.447357" />
    <rect
       style="fill:#000000;fill-opacity:1;stroke:#000000;stroke-width:0.264584;stroke-opacity:1"
       id="rect11"
       width="9.7805758"
       height="33.145283"
       x="108.12971"
       y="-64.932159"
       transform="rotate(90)" />
    <rect
       style="fill:#000000;fill-opacity:1;stroke:#000000;stroke-width:0.264583;stroke-opacity:1"
       id="rect12"
       width="14.399182"
       height="7.3354321"
       x="102.15269"
       y="64.932159" />
    <rect
       style="fill:#000000;fill-opacity:1;stroke:#000000;stroke-width:0.264583;stroke-opacity:1"
       id="rect13"
       width="4.0752401"
       height="9.508893"
       x="107.58634"
       y="55.151585" />
  </g>
</svg>
